Coordinates
version=1
nRows=14
nColumns=40
inDegrees=yes

Units are S.I. units (second, meters, Newtons, ...)
Angles are in degrees.

endheader
time	pelvis_tilt	pelvis_list	pelvis_rotation	pelvis_tx	pelvis_ty	pelvis_tz	hip_flexion_r	hip_adduction_r	hip_rotation_r	knee_angle_r	knee_angle_r_beta	ankle_angle_r	subtalar_angle_r	mtp_angle_r	hip_flexion_l	hip_adduction_l	hip_rotation_l	knee_angle_l	knee_angle_l_beta	ankle_angle_l	subtalar_angle_l	mtp_angle_l	lumbar_extension	lumbar_bending	lumbar_rotation	arm_flex_r	arm_add_r	arm_rot_r	elbow_flex_r	pro_sup_r	wrist_flex_r	wrist_dev_r	arm_flex_l	arm_add_l	arm_rot_l	elbow_flex_l	pro_sup_l	wrist_flex_l	wrist_dev_l
     18.18750000	     -2.14509712	     -4.13959219	      9.26812986	      0.94647199	      0.90708817	      0.57446242	     15.15532641	      4.98474453	     -9.44339283	     32.76786913	     32.76786913	     20.78888660	    -13.73491687	      1.42756325	     34.24435378	    -14.06983427	      8.86386155	     62.49765806	     62.49765806	      6.29805124	    -18.55081159	      8.03287010	    -11.41311887	      4.94999402	      2.02199941	     41.60088369	    -18.49590694	    -11.45139635	     42.71287665	     46.36457023	      0.00000000	      0.00000000	     -8.82489307	     -9.00328384	     12.30700880	     28.45853740	     44.23684304	      0.00000000	      0.00000000
     18.20871429	     -2.17467182	     -3.90686803	     10.01782682	      0.94470505	      0.90799892	      0.57393444	     14.75346221	      4.70043229	     -9.88277183	     32.38411951	     32.38411951	     20.90976822	    -13.84039598	      1.84795840	     34.78392085	    -13.45502672	      9.04741296	     60.64161234	     60.64161234	      7.86217305	    -18.50910354	     11.49808692	    -11.30595996	      4.80284740	      2.59809906	     43.42383218	    -19.48046598	    -11.47730546	     46.33419419	     46.19056730	      0.00000000	      0.00000000	     -9.95557009	     -9.37041345	     16.21303738	     29.59520719	     43.73012174	      0.00000000	      0.00000000
     18.22992857	     -2.18326862	     -3.67354035	     10.70534989	      0.94302468	      0.90967636	      0.57316533	     14.09259088	      4.44608974	    -10.30081590	     31.57251975	     31.57251975	     20.80124804	    -13.84564057	      2.01857549	     34.82575068	    -12.96799030	      9.00207583	     57.72803009	     57.72803009	      8.12260319	    -18.49680309	     11.45397327	    -11.15606280	      4.68864364	      2.61694369	     46.29202361	    -19.70820246	    -11.50682631	     47.87237995	     46.14762594	      0.00000000	      0.00000000	    -10.89599383	     -8.89468041	     16.78167320	     29.19895425	     43.65233766	      0.00000000	      0.00000000
     18.25114286	     -2.43117546	     -3.47581491	     11.33429963	      0.94131570	      0.91148914	      0.57209758	     13.55965331	      4.13068573	    -10.88865255	     30.51698765	     30.51698765	     20.52093760	    -13.53348237	      1.90978900	     34.81205304	    -12.49459740	      8.84955720	     54.11736384	     54.11736384	      7.97081300	    -18.34238903	     10.36179135	    -10.80329341	      4.55354191	      2.37753522	     48.80140439	    -19.64142648	    -11.32965818	     50.33559216	     46.05026734	      0.00000000	      0.00000000	    -11.97370606	     -8.46213933	     18.08031318	     28.98293411	     43.49522886	      0.00000000	      0.00000000
     18.27235714	     -2.59155259	     -3.21626803	     11.85284202	      0.93966669	      0.91394619	      0.57083346	     12.76481363	      3.81227082	    -11.34684561	     29.18890975	     29.18890975	     20.19086082	    -13.12164517	      2.01096966	     34.34273500	    -11.96318322	      8.64019245	     49.90486633	     49.90486633	      7.83687253	    -17.97104950	     10.05408536	    -10.57265298	      4.34485835	      2.48827871	     51.22709036	    -19.91991269	    -11.25873702	     52.13668167	     45.99069088	      0.00000000	      0.00000000	    -12.80874472	     -7.96449032	     18.71053319	     28.90714889	     43.41390037	      0.00000000	      0.00000000
     18.29357143	     -3.07579558	     -2.98488198	     12.25504681	      0.93788803	      0.91597158	      0.56941297	     12.35394312	      3.45070700	    -11.73152336	     27.91071960	     27.91071960	     19.85892701	    -12.72051546	      2.18877462	     34.05035697	    -11.44792562	      8.24040250	     45.41944611	     45.41944611	      7.75085165	    -17.13080192	     10.18950751	     -9.97764622	      4.07642232	      2.68780524	     53.58899795	    -20.16482367	    -11.20998841	     53.60825461	     45.94726754	      0.00000000	      0.00000000	    -13.54744165	     -7.41033772	     19.04773704	     28.84748259	     43.36363659	      0.00000000	      0.00000000
     18.31478571	     -3.16930179	     -2.75241592	     12.60821515	      0.93650059	      0.91862937	      0.56779402	     11.32197602	      3.16427065	    -12.28847995	     26.31670149	     26.31670149	     19.50640074	    -11.81364470	      2.21781098	     33.03225875	    -11.02949523	      7.79058676	     40.55567614	     40.55567614	      7.42504638	    -16.04765046	      9.97269994	     -9.85056674	      3.89793129	      2.51270275	     55.64565961	    -19.86590286	    -10.93725273	     55.71764665	     45.86883298	      0.00000000	      0.00000000	    -14.39100916	     -6.91228072	     19.53101553	     28.80274951	     43.29431827	      0.00000000	      0.00000000
     18.33600000	     -3.36135134	     -2.71350367	     12.90770826	      0.93516469	      0.92049757	      0.56603000	     10.44788753	      2.99567494	    -13.12602141	     24.72307556	     24.72307556	     18.54710697	    -10.83478218	      0.13656341	     31.90926298	    -10.84138955	      7.20191491	     35.25066752	     35.25066752	      4.71617101	    -15.40770372	      4.12455802	     -9.61993041	      3.94711162	      3.02323319	     56.51923162	    -20.72528924	    -10.15672759	     60.71134750	     45.64667991	      0.00000000	      0.00000000	    -14.91322153	     -7.34291941	     24.80415775	     29.87884747	     42.87546478	      0.00000000	      0.00000000
     18.35721429	     -3.60960249	     -2.59829118	     13.06375607	      0.93382896	      0.92210451	      0.56423653	      9.78311312	      2.80796139	    -13.50482109	     23.46677622	     23.46677622	     18.31309061	    -10.06593511	      0.30176189	     31.01853996	    -10.51709172	      6.55504082	     30.78372540	     30.78372540	      4.67543793	    -13.45263406	      4.89907318	     -9.27246733	      3.80414859	      3.01563775	     58.32984868	    -20.50351475	     -9.96409393	     62.16789800	     45.59718203	      0.00000000	      0.00000000	    -15.49602647	     -6.92552321	     25.01214450	     29.95669484	     42.86041597	      0.00000000	      0.00000000
     18.37842857	     -3.77415851	     -2.58444699	     13.15716150	      0.93262978	      0.92330531	      0.56231102	      9.07725740	      2.71320179	    -13.98251068	     22.29512654	     22.29512654	     18.16624808	     -9.08437834	      0.31545539	     30.15693857	    -10.30888318	      5.82276457	     26.81653303	     26.81653303	      4.69418730	    -11.22082877	      5.59694174	     -9.03316665	      3.80680541	      2.92040324	     59.93137429	    -20.13182993	     -9.65304356	     63.92428874	     45.53247074	      0.00000000	      0.00000000	    -15.96547260	     -6.54202909	     25.20297459	     30.09082166	     42.84980110	      0.00000000	      0.00000000
     18.39964286	     -3.89117181	     -2.69500950	     13.22506569	      0.93160230	      0.92393814	      0.56024397	      8.39614763	      2.68160671	    -14.79129766	     21.24878944	     21.24878944	     17.99735925	     -7.63199050	     -0.15810042	     29.54934528	    -10.27056357	      4.85626254	     23.74834818	     23.74834818	      5.13854571	     -8.30829132	      6.37923336	     -8.85645614	      3.99428646	      3.00786112	     60.76919242	    -20.09481201	     -8.97929066	     67.37245633	     45.39760582	      0.00000000	      0.00000000	    -16.31004789	     -6.32181341	     25.48060610	     30.63648736	     42.88775655	      0.00000000	      0.00000000
     18.42085714	     -3.97376985	     -2.83575154	     13.15567881	      0.93072390	      0.92420470	      0.55825580	      7.81145782	      2.77942549	    -15.01250575	     20.42188333	     20.42188333	     17.94465070	     -6.82398762	     -0.38838771	     28.93631637	    -10.22068451	      4.05574396	     21.16264403	     21.16264403	      5.40797356	     -6.01044308	      7.02158204	     -8.68558435	      4.08937359	      3.01610382	     61.69098693	    -19.95292901	     -8.65272058	     69.40166314	     45.32642999	      0.00000000	      0.00000000	    -16.45213603	     -6.20614361	     25.72969037	     30.67568478	     42.91261597	      0.00000000	      0.00000000
     18.44207143	     -4.05335606	     -2.89786750	     13.03464208	      0.93001275	      0.92417229	      0.55610311	      7.31723454	      2.76797628	    -15.16674257	     19.84143240	     19.84143240	     17.98595544	     -6.23255808	     -0.51437715	     28.32412695	    -10.04980086	      3.33584840	     19.07306028	     19.07306028	      5.55289791	     -4.06711013	      7.31346569	     -8.48457245	      4.09977595	      2.95246575	     62.44412630	    -19.56743569	     -8.38188096	     70.82577948	     45.27515306	      0.00000000	      0.00000000	    -16.37764729	     -6.12651618	     25.84179740	     30.68181435	     42.92927092	      0.00000000	      0.00000000
     18.46328571	     -4.11895419	     -3.12292513	     12.86229256	      0.92950487	      0.92371342	      0.55392410	      6.87408837	      2.89685130	    -15.43111942	     19.34491436	     19.34491436	     18.05733219	     -5.43963277	     -0.90740832	     28.00114679	    -10.13521839	      2.37179787	     17.82887773	     17.82887773	      5.71100529	     -1.74973167	      6.91466410	     -8.28139470	      4.27443519	      3.14861998	     62.51310864	    -19.59637963	     -8.08567470	     73.42487188	     45.19065881	      0.00000000	      0.00000000	    -16.09510280	     -6.15166827	     25.97210350	     30.59244893	     43.00799062	      0.00000000	      0.00000000
